# xmcd CD database file
#
# Track frame offsets:
#	150
#	27360
#	49027
#	71802
#	107902
#	136450
#	169262
#	197295
#
# Disc length: 3123 seconds
#
# Revision: 0
# Processed by: cddbd v1.4PL0 Copyright (c) Steve Scherf et al.
# Submitted via: CDex 1.50
#
DISCID=6f0c3108
DTITLE=Brian Ales - Naiveté
DYEAR=1900
DGENRE=Jazz
TTITLE0=Personal Montuno
TTITLE1=Low Cloud
TTITLE2=Mr. Dibala To Me
TTITLE3=Tango Del Suceso Feliz
TTITLE4="La Casa Ya En Bongo"
TTITLE5=What Mambo
TTITLE6=Makye Macca
TTITLE7=This Dream
EXTD=
EXTT0=
EXTT1=
EXTT2=
EXTT3=
EXTT4=
EXTT5=
EXTT6=
EXTT7=
PLAYORDER=
